<?xml version="1.0" encoding="UTF-8"?>
<svg width="64px" height="64px" viewBox="0 0 64 64" version="1.1" xmlns="http://www.w3.org/2000/svg" xmlns:xlink="http://www.w3.org/1999/xlink">
    <title>symbol-copy</title>
    <g id="symbol-copy" stroke="none" stroke-width="1" fill="none" fill-rule="evenodd">
        <g id="ô€‰" transform="translate(9.595382, 4.917358)" fill="#000000" fill-rule="nonzero">
            <path d="M10.8731689,12.4984131 L14.8520508,12.4984131 L14.8520508,7.30737305 C14.8520508,6.24023438 15.1314697,5.42224121 15.6903076,4.85339355 C16.2491455,4.2845459 17.0863037,4.00012207 18.2017822,4.00012207 L27.7056885,4.00012207 L27.7056885,14.9388428 C27.7056885,16.2794189 28.0440063,17.2809448 28.7206421,17.9434204 C29.3972778,18.605896 30.3917236,18.9371338 31.7039795,18.9371338 L41.7700195,18.9371338 L41.7700195,37.5769043 C41.7700195,38.644043 41.4902954,39.4620361 40.9308472,40.0308838 C40.3713989,40.5997314 39.5338135,40.8841553 38.4180908,40.8841553 L34.1531982,40.8841553 L34.1531982,44.8839111 L38.7052002,44.8839111 C41.0443115,44.8839111 42.8026733,44.2845459 43.9802856,43.0858154 C45.1578979,41.887085 45.7467041,40.1103516 45.7467041,37.7556152 L45.7467041,19.9863281 C45.7467041,18.5756836 45.583313,17.3800049 45.2565308,16.399292 C44.9297485,15.4185791 44.3331299,14.4864502 43.4666748,13.6029053 L32.3616943,2.28259277 C31.5421143,1.4630127 30.6419678,0.877685547 29.6612549,0.526611328 C28.680542,0.175537109 27.5722656,0 26.3364258,0 L17.9168701,0 C15.5904541,0 13.8348999,0.59942627 12.6502075,1.79827881 C11.4655151,2.99713135 10.8731689,4.77392578 10.8731689,7.12866211 L10.8731689,12.4984131 Z M31.15979,14.4118652 L31.15979,5.76855469 L40.7453613,15.5042725 L32.2521973,15.5042725 C31.5239258,15.5042725 31.15979,15.1401367 31.15979,14.4118652 Z M0,48.9832764 C0,51.3380127 0.592712402,53.1147461 1.77813721,54.3134766 C2.96356201,55.512207 4.71875,56.1115723 7.04370117,56.1115723 L27.8532715,56.1115723 C30.1782227,56.1115723 31.9334106,55.512207 33.1188354,54.3134766 C34.3042603,53.1147461 34.8969727,51.3380127 34.8969727,48.9832764 L34.8969727,31.8178711 C34.8969727,30.347168 34.7620239,29.1956177 34.4921265,28.3632202 C34.222229,27.5308228 33.6314697,26.651001 32.7198486,25.7237549 L20.6151123,13.4051514 C19.7442627,12.5059814 18.8852539,11.9182739 18.0380859,11.6420288 C17.190918,11.3657837 16.1174316,11.2276611 14.817627,11.2276611 L7.04370117,11.2276611 C4.71875,11.2276611 2.96356201,11.8270874 1.77813721,13.0259399 C0.592712402,14.2247925 0,16.0015869 0,18.3563232 L0,48.9832764 Z M4.00012207,48.8045654 L4.00012207,18.5137939 C4.00012207,17.4593506 4.27984619,16.6477051 4.83929443,16.0788574 C5.39874268,15.5100098 6.22924805,15.2255859 7.33081055,15.2255859 L14.3496094,15.2255859 L14.3496094,27.6848145 C14.3496094,29.1936035 14.7234497,30.3143311 15.4711304,31.0469971 C16.218811,31.7796631 17.3321533,32.1459961 18.8111572,32.1459961 L30.9180908,32.1459961 L30.9180908,48.8045654 C30.9180908,49.8717041 30.6347656,50.6896973 30.0681152,51.2585449 C29.5014648,51.8273926 28.6674805,52.1118164 27.5661621,52.1118164 L7.30957031,52.1118164 C6.20825195,52.1118164 5.38134766,51.8273926 4.82885742,51.2585449 C4.27636719,50.6896973 4.00012207,49.8717041 4.00012207,48.8045654 Z M19.237793,28.5578613 C18.7912598,28.5578613 18.4669189,28.4564209 18.2647705,28.25354 C18.0626221,28.0506592 17.9615479,27.7266846 17.9615479,27.2816162 L17.9615479,16.0429688 L30.260376,28.5578613 L19.237793,28.5578613 Z" id="Shape"></path>
        </g>
    </g>
</svg>