<?xml version="1.0" encoding="UTF-8"?>
<svg width="64px" height="64px" viewBox="0 0 64 64" version="1.1" xmlns="http://www.w3.org/2000/svg" xmlns:xlink="http://www.w3.org/1999/xlink">
    <title>symbol-open</title>
    <g id="symbol-open" stroke="none" stroke-width="1" fill="none" fill-rule="evenodd">
        <g id="ô€Œ" transform="translate(9.208282, 10.234375)" fill="#000000" fill-rule="nonzero">
            <path d="M22.78125,45.5390625 C25.890625,45.5390625 28.8203125,44.9414062 31.5703125,43.7460938 C34.3203125,42.5507812 36.7421875,40.90625 38.8359375,38.8125 C40.9296875,36.71875 42.5703125,34.3007812 43.7578125,31.5585938 C44.9453125,28.8164062 45.5390625,25.8828125 45.5390625,22.7578125 C45.5390625,19.6484375 44.9414062,16.71875 43.7460938,13.96875 C42.5507812,11.21875 40.90625,8.79296875 38.8125,6.69140625 C36.71875,4.58984375 34.296875,2.94921875 31.546875,1.76953125 C28.796875,0.58984375 25.8671875,0 22.7578125,0 C19.6484375,0 16.7226562,0.58984375 13.9804687,1.76953125 C11.2382812,2.94921875 8.81640625,4.58984375 6.71484375,6.69140625 C4.61328125,8.79296875 2.96875,11.21875 1.78125,13.96875 C0.59375,16.71875 0,19.6484375 0,22.7578125 C0,25.8828125 0.59765625,28.8164062 1.79296875,31.5585938 C2.98828125,34.3007812 4.6328125,36.71875 6.7265625,38.8125 C8.8203125,40.90625 11.2382812,42.5507812 13.9804687,43.7460938 C16.7226562,44.9414062 19.65625,45.5390625 22.78125,45.5390625 Z M22.78125,41.3671875 C20.203125,41.3671875 17.7890625,40.8867188 15.5390625,39.9257812 C13.2890625,38.9648438 11.3125,37.6328125 9.609375,35.9296875 C7.90625,34.2265625 6.578125,32.25 5.625,30 C4.671875,27.75 4.1953125,25.3359375 4.1953125,22.7578125 C4.1953125,20.1796875 4.671875,17.765625 5.625,15.515625 C6.578125,13.265625 7.90625,11.2890625 9.609375,9.5859375 C11.3125,7.8828125 13.2851562,6.5546875 15.5273438,5.6015625 C17.7695312,4.6484375 20.1796875,4.171875 22.7578125,4.171875 C25.3359375,4.171875 27.75,4.6484375 30,5.6015625 C32.25,6.5546875 34.2265625,7.8828125 35.9296875,9.5859375 C37.6328125,11.2890625 38.9648438,13.265625 39.9257812,15.515625 C40.8867188,17.765625 41.3671875,20.1796875 41.3671875,22.7578125 C41.3828125,25.3359375 40.9101562,27.75 39.9492188,30 C38.9882812,32.25 37.6601562,34.2265625 35.9648438,35.9296875 C34.2695312,37.6328125 32.2929688,38.9648438 30.0351562,39.9257812 C27.7773438,40.8867188 25.359375,41.3671875 22.78125,41.3671875 Z M12.4921875,22.7578125 C12.4921875,23.3203125 12.6796875,23.7851562 13.0546875,24.1523438 C13.4296875,24.5195312 13.90625,24.703125 14.484375,24.703125 L20.765625,24.703125 L20.765625,31.0078125 C20.765625,31.5859375 20.9492188,32.0585938 21.3164062,32.4257812 C21.6835938,32.7929688 22.1484375,32.9765625 22.7109375,32.9765625 C23.3046875,32.9765625 23.7890625,32.796875 24.1640625,32.4375 C24.5390625,32.078125 24.7265625,31.6015625 24.7265625,31.0078125 L24.7265625,24.703125 L31.03125,24.703125 C31.609375,24.703125 32.0859375,24.5195312 32.4609375,24.1523438 C32.8359375,23.7851562 33.0234375,23.3203125 33.0234375,22.7578125 C33.0234375,22.1640625 32.8359375,21.6796875 32.4609375,21.3046875 C32.0859375,20.9296875 31.609375,20.7421875 31.03125,20.7421875 L24.7265625,20.7421875 L24.7265625,14.4609375 C24.7265625,13.8671875 24.5390625,13.3867188 24.1640625,13.0195312 C23.7890625,12.6523438 23.3046875,12.46875 22.7109375,12.46875 C22.1484375,12.46875 21.6835938,12.6523438 21.3164062,13.0195312 C20.9492188,13.3867188 20.765625,13.8671875 20.765625,14.4609375 L20.765625,20.7421875 L14.484375,20.7421875 C13.90625,20.7421875 13.4296875,20.9296875 13.0546875,21.3046875 C12.6796875,21.6796875 12.4921875,22.1640625 12.4921875,22.7578125 Z" id="Shape"></path>
        </g>
    </g>
</svg>