<?xml version="1.0" encoding="UTF-8"?>
<svg width="64px" height="64px" viewBox="0 0 64 64" version="1.1" xmlns="http://www.w3.org/2000/svg" xmlns:xlink="http://www.w3.org/1999/xlink">
    <title>symbol-no-results</title>
    <g id="symbol-no-results" stroke="none" stroke-width="1" fill="none" fill-rule="evenodd">
        <g id="ô…’" transform="translate(9.069800, 6.706771)" fill="#000000" fill-rule="nonzero">
            <path d="M8.765625,36.5979167 C9.125,36.1604167 9.265625,35.6877604 9.1875,35.1799479 C9.109375,34.6721354 8.859375,34.1838542 8.4375,33.7151042 C6.953125,32.0744792 5.8203125,30.1955729 5.0390625,28.0783854 C4.2578125,25.9611979 3.8671875,23.7072917 3.8671875,21.3166667 C3.8671875,19.3791667 4.1328125,17.5197917 4.6640625,15.7385417 C5.1953125,13.9572917 5.96875,12.3322917 6.984375,10.8635417 L4.21875,8.09791667 C2.859375,9.94166667 1.81640625,11.9924479 1.08984375,14.2502604 C0.36328125,16.5080729 0,18.8635417 0,21.3166667 C0,24.2229167 0.49609375,26.9807292 1.48828125,29.5901042 C2.48046875,32.1994792 3.90625,34.4963542 5.765625,36.4807292 C6.21875,36.9963542 6.73828125,37.2541667 7.32421875,37.2541667 C7.91015625,37.2541667 8.390625,37.0354167 8.765625,36.5979167 Z M15.4921875,30.2229167 C15.8515625,29.7854167 15.984375,29.3166667 15.890625,28.8166667 C15.796875,28.3166667 15.5625,27.8244792 15.1875,27.3401042 C14.5625,26.5432292 14.0820312,25.6252604 13.7460938,24.5861979 C13.4101562,23.5471354 13.2421875,22.4572917 13.2421875,21.3166667 C13.2421875,20.7072917 13.3046875,20.1096354 13.4296875,19.5236979 C13.5546875,18.9377604 13.734375,18.3713542 13.96875,17.8244792 L10.96875,14.8713542 C10.46875,15.8401042 10.0859375,16.8674479 9.8203125,17.9533854 C9.5546875,19.0393229 9.421875,20.1604167 9.421875,21.3166667 C9.421875,22.9572917 9.68359375,24.5315104 10.2070312,26.0393229 C10.7304688,27.5471354 11.4765625,28.8869792 12.4453125,30.0588542 C12.8828125,30.5901042 13.4023438,30.8596354 14.0039062,30.8674479 C14.6054688,30.8752604 15.1015625,30.6604167 15.4921875,30.2229167 Z M23.90625,46.8635417 C24.46875,46.8635417 24.9140625,46.6760417 25.2421875,46.3010417 C25.5703125,45.9260417 25.734375,45.4416667 25.734375,44.8479167 L25.734375,29.6135417 L22.1015625,25.9807292 L22.1015625,44.8479167 C22.1015625,45.4416667 22.2695312,45.9260417 22.6054688,46.3010417 C22.9414063,46.6760417 23.375,46.8635417 23.90625,46.8635417 Z M36.9609375,27.4807292 C37.4296875,26.5588542 37.7890625,25.5783854 38.0390625,24.5393229 C38.2890625,23.5002604 38.4140625,22.4260417 38.4140625,21.3166667 C38.4140625,19.6760417 38.1484375,18.1057292 37.6171875,16.6057292 C37.0859375,15.1057292 36.3359375,13.7619792 35.3671875,12.5744792 C34.9453125,12.0432292 34.4296875,11.7776042 33.8203125,11.7776042 C33.2109375,11.7776042 32.7109375,12.0041667 32.3203125,12.4572917 C31.9609375,12.8635417 31.8320313,13.3166667 31.9335938,13.8166667 C32.0351562,14.3166667 32.265625,14.8166667 32.625,15.3166667 C33.234375,16.1291667 33.7109375,17.0510417 34.0546875,18.0822917 C34.3984375,19.1135417 34.5703125,20.1916667 34.5703125,21.3166667 C34.5703125,21.8791667 34.515625,22.4260417 34.40625,22.9572917 C34.296875,23.4885417 34.1484375,24.0041667 33.9609375,24.5041667 L36.9609375,27.4807292 Z M43.8046875,34.3244792 C45.1015625,32.4807292 46.09375,30.4533854 46.78125,28.2424479 C47.46875,26.0315104 47.8125,23.7229167 47.8125,21.3166667 C47.8125,19.3947917 47.5859375,17.5276042 47.1328125,15.7151042 C46.6796875,13.9026042 46.0273437,12.1877604 45.1757812,10.5705729 C44.3242187,8.95338542 43.2890625,7.48854167 42.0703125,6.17604167 C41.6015625,5.66041667 41.078125,5.40260417 40.5,5.40260417 C39.921875,5.40260417 39.4375,5.62135417 39.046875,6.05885417 C38.6875,6.48072917 38.5507812,6.94557292 38.6367187,7.45338542 C38.7226562,7.96119792 38.9765625,8.45729167 39.3984375,8.94166667 C40.8671875,10.5666667 41.9960937,12.4377604 42.7851562,14.5549479 C43.5742187,16.6721354 43.96875,18.9260417 43.96875,21.3166667 C43.96875,23.2229167 43.7148437,25.0393229 43.2070312,26.7658854 C42.6992187,28.4924479 41.96875,30.0822917 41.015625,31.5354167 L43.8046875,34.3244792 Z M43.1015625,42.7854167 C43.4609375,43.1291667 43.8828125,43.3010417 44.3671875,43.3010417 C44.8515625,43.3010417 45.25,43.1291667 45.5625,42.7854167 C45.90625,42.4416667 46.0820312,42.0315104 46.0900931,41.5549479 C46.0976562,41.0783854 45.921875,40.6682292 45.5625,40.3244792 L5.765625,0.527604167 C5.40625,0.183854167 4.984375,0.00807291667 4.5,0 C4.015625,-0.00755208333 3.609375,0.160416667 3.28125,0.504166667 C2.9375,0.832291667 2.765625,1.24244792 2.765625,1.73463542 C2.765625,2.22682292 2.9375,2.63697917 3.28125,2.96510417 L43.1015625,42.7854167 Z" id="Shape"></path>
        </g>
    </g>
</svg>